<svg id="Layer_1" data-name="Layer 1" xmlns="http://www.w3.org/2000/svg" viewBox="0 0 512 512"><defs><style>.cls-1{fill:#231f20;}.cls-2{fill:#8dc63f;}.cls-3{fill:#39b54a;}.cls-4{fill:#009444;}.cls-5{fill:#2bb673;}.cls-6{fill:#2db34a;}</style></defs><rect class="cls-1" width="512" height="512" rx="36.2"/><path class="cls-2" d="M288.85,161.58h44.62A19.52,19.52,0,0,1,353,181.1h0a19.52,19.52,0,0,1-19.52,19.52H288.85a19.52,19.52,0,0,1-19.52-19.52h0A19.52,19.52,0,0,1,288.85,161.58Z"/><rect class="cls-3" x="269.32" y="161.58" width="40.19" height="188.85" rx="20.09"/><rect class="cls-4" x="269.32" y="311.39" width="83.66" height="39.04" rx="19.52"/><path class="cls-2" d="M158,181.1h0a19.52,19.52,0,0,1,19.52-19.52h56.1a19.52,19.52,0,0,1,19.52,19.52h0a19.52,19.52,0,0,1-19.52,19.52h-56.1A19.52,19.52,0,0,1,158,181.1Z"/><rect class="cls-5" x="213.65" y="163.82" width="40.19" height="89.02" rx="20.09"/><rect class="cls-6" x="157.99" y="161.58" width="40.19" height="188.85" rx="20.09"/><path class="cls-4" d="M169.47,236.48h0A19.51,19.51,0,0,1,189,217h44.62a19.52,19.52,0,0,1,19.52,19.52h0A19.51,19.51,0,0,1,233.61,256H189a19.52,19.52,0,0,1-19.53-19.51Z"/></svg>